<svg width="65" height="65" viewBox="0 0 65 65" fill="none" xmlns="http://www.w3.org/2000/svg">
<circle cx="32.5" cy="32.5" r="32.5" fill="#FFFCFC"/>
<path d="M24 46.5H40V43.5H24V46.5ZM24 40.5H40V37.5H24V40.5ZM32 32.8C34.1333 30.8667 35.9167 29.2333 37.35 27.9C38.7833 26.5667 39.5 25.0667 39.5 23.4C39.5 22.3364 39.1159 21.4205 38.3478 20.6523C37.5796 19.8841 36.6636 19.5 35.6 19.5C34.7667 19.5 34.0833 19.6583 33.55 19.975C33.0167 20.2917 32.5 20.7667 32 21.4C31.5 20.7667 30.9833 20.2917 30.45 19.975C29.9167 19.6583 29.2333 19.5 28.4 19.5C27.3364 19.5 26.4205 19.8841 25.6523 20.6523C24.8841 21.4205 24.5 22.3364 24.5 23.4C24.5 25.0667 25.1917 26.5417 26.575 27.825C27.9583 29.1083 29.7667 30.7667 32 32.8ZM45 53H19C18.2 53 17.5 52.7 16.9 52.1C16.3 51.5 16 50.8 16 50V16C16 15.2 16.3 14.5 16.9 13.9C17.5 13.3 18.2 13 19 13H45C45.8 13 46.5 13.3 47.1 13.9C47.7 14.5 48 15.2 48 16V50C48 50.8 47.7 51.5 47.1 52.1C46.5 52.7 45.8 53 45 53ZM19 50H45V16H19V50Z" fill="black"/>
</svg>
