<svg width="65" height="65" viewBox="0 0 65 65" fill="none" xmlns="http://www.w3.org/2000/svg">
<circle cx="32.5" cy="32.5" r="32.5" fill="#FFFCFC"/>
<path d="M32 53C29.2667 53 26.6833 52.475 24.25 51.425C21.8167 50.375 19.6917 48.9417 17.875 47.125C16.0583 45.3083 14.625 43.1833 13.575 40.75C12.525 38.3167 12 35.7333 12 33C12 30.1667 12.5333 27.5333 13.6 25.1C14.6667 22.6667 16.125 20.55 17.975 18.75C19.825 16.95 21.9917 15.5417 24.475 14.525C26.9583 13.5083 29.6167 13 32.45 13C35.0833 13 37.5833 13.4417 39.95 14.325C42.3167 15.2083 44.3917 16.4333 46.175 18C47.9583 19.5667 49.375 21.425 50.425 23.575C51.475 25.725 52 28.0833 52 30.65C52 34.25 50.95 37.0917 48.85 39.175C46.75 41.2583 43.9667 42.3 40.5 42.3H36.75C36.15 42.3 35.6333 42.5333 35.2 43C34.7667 43.4667 34.55 43.9833 34.55 44.55C34.55 45.45 34.7917 46.2167 35.275 46.85C35.7583 47.4833 36 48.2167 36 49.05C36 50.3167 35.65 51.2917 34.95 51.975C34.25 52.6583 33.2667 53 32 53ZM20.35 34.3C21.0167 34.3 21.6 34.05 22.1 33.55C22.6 33.05 22.85 32.4667 22.85 31.8C22.85 31.1333 22.6 30.55 22.1 30.05C21.6 29.55 21.0167 29.3 20.35 29.3C19.6833 29.3 19.1 29.55 18.6 30.05C18.1 30.55 17.85 31.1333 17.85 31.8C17.85 32.4667 18.1 33.05 18.6 33.55C19.1 34.05 19.6833 34.3 20.35 34.3ZM26.65 25.8C27.3167 25.8 27.9 25.55 28.4 25.05C28.9 24.55 29.15 23.9667 29.15 23.3C29.15 22.6333 28.9 22.05 28.4 21.55C27.9 21.05 27.3167 20.8 26.65 20.8C25.9833 20.8 25.4 21.05 24.9 21.55C24.4 22.05 24.15 22.6333 24.15 23.3C24.15 23.9667 24.4 24.55 24.9 25.05C25.4 25.55 25.9833 25.8 26.65 25.8ZM37.35 25.8C38.0167 25.8 38.6 25.55 39.1 25.05C39.6 24.55 39.85 23.9667 39.85 23.3C39.85 22.6333 39.6 22.05 39.1 21.55C38.6 21.05 38.0167 20.8 37.35 20.8C36.6833 20.8 36.1 21.05 35.6 21.55C35.1 22.05 34.85 22.6333 34.85 23.3C34.85 23.9667 35.1 24.55 35.6 25.05C36.1 25.55 36.6833 25.8 37.35 25.8ZM43.9 34.3C44.5667 34.3 45.15 34.05 45.65 33.55C46.15 33.05 46.4 32.4667 46.4 31.8C46.4 31.1333 46.15 30.55 45.65 30.05C45.15 29.55 44.5667 29.3 43.9 29.3C43.2333 29.3 42.65 29.55 42.15 30.05C41.65 30.55 41.4 31.1333 41.4 31.8C41.4 32.4667 41.65 33.05 42.15 33.55C42.65 34.05 43.2333 34.3 43.9 34.3ZM32 50C32.3667 50 32.625 49.925 32.775 49.775C32.925 49.625 33 49.3833 33 49.05C33 48.5833 32.7583 48.15 32.275 47.75C31.7917 47.35 31.55 46.4667 31.55 45.1C31.55 43.5667 32.05 42.2167 33.05 41.05C34.05 39.8833 35.3167 39.3 36.85 39.3H40.5C43.0333 39.3 45.0833 38.5583 46.65 37.075C48.2167 35.5917 49 33.45 49 30.65C49 26.25 47.3333 22.7083 44 20.025C40.6667 17.3417 36.8167 16 32.45 16C27.5833 16 23.4583 17.6417 20.075 20.925C16.6917 24.2083 15 28.2333 15 33C15 37.7 16.6583 41.7083 19.975 45.025C23.2917 48.3417 27.3 50 32 50Z" fill="black"/>
</svg>
