<svg width="65" height="65" viewBox="0 0 65 65" fill="none" xmlns="http://www.w3.org/2000/svg">
<circle cx="32.5" cy="32.5" r="32.5" fill="#FFFCFC"/>
<path d="M33.75 50C33.9167 50 34.1083 49.9583 34.325 49.875C34.5417 49.7917 34.7167 49.6833 34.85 49.55L51.7 32.65C52.1333 32.2167 52.4583 31.7222 52.675 31.1666C52.8917 30.6111 53 30.0556 53 29.5C53 28.9333 52.8917 28.3667 52.675 27.8C52.4583 27.2333 52.1333 26.7333 51.7 26.3L42.7 17.3C42.2667 16.8667 41.7667 16.5417 41.2 16.325C40.6333 16.1083 40.0667 16 39.5 16C38.9444 16 38.3889 16.1083 37.8333 16.325C37.2778 16.5417 36.7833 16.8667 36.35 17.3L35.45 18.2L39.5 22.3C39.9333 22.7667 40.3167 23.3083 40.65 23.925C40.9833 24.5417 41.15 25.2167 41.15 25.95C41.15 27.2167 40.6583 28.3333 39.675 29.3C38.6917 30.2667 37.5667 30.75 36.3 30.75C35.4667 30.75 34.775 30.625 34.225 30.375C33.675 30.125 33.1719 29.7693 32.7158 29.3079L29.05 25.65L20 34.7C19.8333 34.8667 19.7167 35.0421 19.65 35.2263C19.5833 35.4105 19.55 35.6079 19.55 35.8184C19.55 36.2395 19.6917 36.5917 19.975 36.875C20.2583 37.1583 20.6111 37.3 21.0334 37.3C21.2445 37.3 21.4417 37.25 21.625 37.15C21.8083 37.05 21.9667 36.9333 22.1 36.8L29 29.9L31.1 32L24.25 38.85C24.0833 39.0167 23.9667 39.2 23.9 39.4C23.8333 39.6 23.8 39.8 23.8 40C23.8 40.4 23.95 40.75 24.25 41.05C24.55 41.35 24.9 41.5 25.3 41.5C25.5 41.5 25.6917 41.4583 25.875 41.375C26.0583 41.2917 26.2167 41.1833 26.35 41.05L33.25 34.15L35.35 36.25L28.5 43.1C28.3667 43.2333 28.2583 43.4055 28.175 43.6166C28.0917 43.8278 28.05 44.0389 28.05 44.25C28.05 44.65 28.2 45 28.5 45.3C28.8 45.6 29.15 45.75 29.55 45.75C29.75 45.75 29.9333 45.7167 30.1 45.65C30.2667 45.5833 30.4333 45.4667 30.6 45.3L37.5 38.4L39.6 40.5L32.7 47.4C32.5333 47.5667 32.4167 47.75 32.35 47.95C32.2833 48.15 32.25 48.3333 32.25 48.5C32.25 48.9667 32.3833 49.3333 32.65 49.6C32.9167 49.8667 33.2833 50 33.75 50ZM33.7532 53C32.6511 53 31.6667 52.5917 30.8 51.775C29.9333 50.9583 29.4167 49.948 29.25 48.744C28.1167 48.5813 27.1667 48.1167 26.4 47.35C25.6333 46.5833 25.1667 45.6333 25 44.5C23.8667 44.3333 22.925 43.8583 22.175 43.075C21.425 42.2917 20.9667 41.35 20.8 40.25C19.5667 40.0833 18.55 39.5833 17.75 38.75C16.95 37.9167 16.55 36.9167 16.55 35.75C16.55 35.1833 16.6621 34.6158 16.8862 34.0475C17.1103 33.4792 17.4316 32.9801 17.85 32.55L29.05 21.35L34.55 26.85C34.8167 27.1167 35.1056 27.325 35.4167 27.475C35.7278 27.625 36.0389 27.7 36.35 27.7C36.7833 27.7 37.1917 27.5083 37.575 27.125C37.9583 26.7417 38.15 26.3308 38.15 25.8923C38.15 25.6974 38.0917 25.475 37.975 25.225C37.8583 24.975 37.6667 24.7167 37.4 24.45L30.25 17.3C29.8167 16.8667 29.3167 16.5417 28.75 16.325C28.1833 16.1083 27.6167 16 27.05 16C26.4944 16 25.9389 16.1083 25.3833 16.325C24.8278 16.5417 24.3343 16.8643 23.9029 17.2928L16.3 24.9C15.8333 25.3667 15.5083 25.8583 15.325 26.375C15.1417 26.8917 15.0333 27.475 15 28.125C14.9667 28.775 15.0917 29.4083 15.375 30.025C15.6583 30.6417 16 31.2 16.4 31.7L14.25 33.85C13.5833 33.1167 13.0417 32.2333 12.625 31.2C12.2083 30.1667 12 29.1167 12 28.05C12 27.05 12.1917 26.0917 12.575 25.175C12.9583 24.2583 13.5 23.45 14.2 22.75L21.75 15.2C22.4833 14.4667 23.3132 13.925 24.2397 13.575C25.1661 13.225 26.1161 13.05 27.0897 13.05C28.0632 13.05 29.0083 13.225 29.925 13.575C30.8417 13.925 31.6667 14.4667 32.4 15.2L33.3 16.1L34.2 15.2C34.9333 14.4667 35.7632 13.925 36.6897 13.575C37.6161 13.225 38.5661 13.05 39.5397 13.05C40.5132 13.05 41.4583 13.225 42.375 13.575C43.2917 13.925 44.1167 14.4667 44.85 15.2L53.8 24.15C54.5333 24.8833 55.0833 25.7172 55.45 26.6516C55.8167 27.5861 56 28.5361 56 29.5016C56 30.4672 55.8167 31.4083 55.45 32.325C55.0833 33.2417 54.5333 34.0667 53.8 34.8L36.95 51.65C36.5167 52.0833 36.0245 52.4167 35.4734 52.65C34.9223 52.8833 34.3489 53 33.7532 53Z" fill="black"/>
</svg>
