<svg width="65" height="65" viewBox="0 0 65 65" fill="none" xmlns="http://www.w3.org/2000/svg">
<circle cx="32.5" cy="32.5" r="32.5" fill="#FFFCFC"/>
<path d="M19 52C18.2 52 17.5 51.7 16.9 51.1C16.3 50.5 16 49.8 16 49V23C16 22.2 16.3 21.5 16.9 20.9C17.5 20.3 18.2 20 19 20H24.5V19.5C24.5 17.4 25.225 15.625 26.675 14.175C28.125 12.725 29.9 12 32 12C34.1 12 35.875 12.725 37.325 14.175C38.775 15.625 39.5 17.4 39.5 19.5V20H45C45.8 20 46.5 20.3 47.1 20.9C47.7 21.5 48 22.2 48 23V49C48 49.8 47.7 50.5 47.1 51.1C46.5 51.7 45.8 52 45 52H19ZM19 49H45V23H39.5V27.5C39.5 27.925 39.3554 28.2813 39.0663 28.5688C38.7771 28.8563 38.4187 29 37.9913 29C37.5638 29 37.2083 28.8563 36.925 28.5688C36.6417 28.2813 36.5 27.925 36.5 27.5V23H27.5V27.5C27.5 27.925 27.3554 28.2813 27.0663 28.5688C26.7771 28.8563 26.4187 29 25.9913 29C25.5638 29 25.2083 28.8563 24.925 28.5688C24.6417 28.2813 24.5 27.925 24.5 27.5V23H19V49ZM27.5 20H36.5V19.5C36.5 18.2333 36.0667 17.1667 35.2 16.3C34.3333 15.4333 33.2667 15 32 15C30.7333 15 29.6667 15.4333 28.8 16.3C27.9333 17.1667 27.5 18.2333 27.5 19.5V20Z" fill="black"/>
</svg>
