<svg width="32" height="40" viewBox="0 0 32 40" fill="none" xmlns="http://www.w3.org/2000/svg">
<path d="M8 33.5H24V30.5H8V33.5ZM8 27.5H24V24.5H8V27.5ZM16 19.8C18.1333 17.8667 19.9167 16.2333 21.35 14.9C22.7833 13.5667 23.5 12.0667 23.5 10.4C23.5 9.33637 23.1159 8.42045 22.3478 7.65225C21.5796 6.88408 20.6636 6.5 19.6 6.5C18.7667 6.5 18.0833 6.65833 17.55 6.975C17.0167 7.29167 16.5 7.76667 16 8.4C15.5 7.76667 14.9833 7.29167 14.45 6.975C13.9167 6.65833 13.2333 6.5 12.4 6.5C11.3364 6.5 10.4205 6.88408 9.65225 7.65225C8.88408 8.42045 8.5 9.33637 8.5 10.4C8.5 12.0667 9.19167 13.5417 10.575 14.825C11.9583 16.1083 13.7667 17.7667 16 19.8ZM29 40H3C2.2 40 1.5 39.7 0.9 39.1C0.3 38.5 0 37.8 0 37V3C0 2.2 0.3 1.5 0.9 0.9C1.5 0.3 2.2 0 3 0H29C29.8 0 30.5 0.3 31.1 0.9C31.7 1.5 32 2.2 32 3V37C32 37.8 31.7 38.5 31.1 39.1C30.5 39.7 29.8 40 29 40ZM3 37H29V3H3V37Z" fill="black"/>
</svg>
