<svg width="40" height="40" viewBox="0 0 40 40" fill="none" xmlns="http://www.w3.org/2000/svg">
<path d="M20 40C17.2667 40 14.6833 39.475 12.25 38.425C9.81667 37.375 7.69167 35.9417 5.875 34.125C4.05833 32.3083 2.625 30.1833 1.575 27.75C0.525 25.3167 0 22.7333 0 20C0 17.1667 0.533333 14.5333 1.6 12.1C2.66667 9.66667 4.125 7.55 5.975 5.75C7.825 3.95 9.99167 2.54167 12.475 1.525C14.9583 0.508333 17.6167 0 20.45 0C23.0833 0 25.5833 0.441667 27.95 1.325C30.3167 2.20833 32.3917 3.43333 34.175 5C35.9583 6.56667 37.375 8.425 38.425 10.575C39.475 12.725 40 15.0833 40 17.65C40 21.25 38.95 24.0917 36.85 26.175C34.75 28.2583 31.9667 29.3 28.5 29.3H24.75C24.15 29.3 23.6333 29.5333 23.2 30C22.7667 30.4667 22.55 30.9833 22.55 31.55C22.55 32.45 22.7917 33.2167 23.275 33.85C23.7583 34.4833 24 35.2167 24 36.05C24 37.3167 23.65 38.2917 22.95 38.975C22.25 39.6583 21.2667 40 20 40ZM8.35 21.3C9.01667 21.3 9.6 21.05 10.1 20.55C10.6 20.05 10.85 19.4667 10.85 18.8C10.85 18.1333 10.6 17.55 10.1 17.05C9.6 16.55 9.01667 16.3 8.35 16.3C7.68333 16.3 7.1 16.55 6.6 17.05C6.1 17.55 5.85 18.1333 5.85 18.8C5.85 19.4667 6.1 20.05 6.6 20.55C7.1 21.05 7.68333 21.3 8.35 21.3ZM14.65 12.8C15.3167 12.8 15.9 12.55 16.4 12.05C16.9 11.55 17.15 10.9667 17.15 10.3C17.15 9.63333 16.9 9.05 16.4 8.55C15.9 8.05 15.3167 7.8 14.65 7.8C13.9833 7.8 13.4 8.05 12.9 8.55C12.4 9.05 12.15 9.63333 12.15 10.3C12.15 10.9667 12.4 11.55 12.9 12.05C13.4 12.55 13.9833 12.8 14.65 12.8ZM25.35 12.8C26.0167 12.8 26.6 12.55 27.1 12.05C27.6 11.55 27.85 10.9667 27.85 10.3C27.85 9.63333 27.6 9.05 27.1 8.55C26.6 8.05 26.0167 7.8 25.35 7.8C24.6833 7.8 24.1 8.05 23.6 8.55C23.1 9.05 22.85 9.63333 22.85 10.3C22.85 10.9667 23.1 11.55 23.6 12.05C24.1 12.55 24.6833 12.8 25.35 12.8ZM31.9 21.3C32.5667 21.3 33.15 21.05 33.65 20.55C34.15 20.05 34.4 19.4667 34.4 18.8C34.4 18.1333 34.15 17.55 33.65 17.05C33.15 16.55 32.5667 16.3 31.9 16.3C31.2333 16.3 30.65 16.55 30.15 17.05C29.65 17.55 29.4 18.1333 29.4 18.8C29.4 19.4667 29.65 20.05 30.15 20.55C30.65 21.05 31.2333 21.3 31.9 21.3ZM20 37C20.3667 37 20.625 36.925 20.775 36.775C20.925 36.625 21 36.3833 21 36.05C21 35.5833 20.7583 35.15 20.275 34.75C19.7917 34.35 19.55 33.4667 19.55 32.1C19.55 30.5667 20.05 29.2167 21.05 28.05C22.05 26.8833 23.3167 26.3 24.85 26.3H28.5C31.0333 26.3 33.0833 25.5583 34.65 24.075C36.2167 22.5917 37 20.45 37 17.65C37 13.25 35.3333 9.70833 32 7.025C28.6667 4.34167 24.8167 3 20.45 3C15.5833 3 11.4583 4.64167 8.075 7.925C4.69167 11.2083 3 15.2333 3 20C3 24.7 4.65833 28.7083 7.975 32.025C11.2917 35.3417 15.3 37 20 37Z" fill="black"/>
</svg>
