<svg width="44" height="40" viewBox="0 0 44 40" fill="none" xmlns="http://www.w3.org/2000/svg">
<path d="M21.75 37C21.9167 37 22.1083 36.9583 22.325 36.875C22.5417 36.7917 22.7167 36.6833 22.85 36.55L39.7 19.65C40.1333 19.2167 40.4583 18.7222 40.675 18.1666C40.8917 17.6111 41 17.0556 41 16.5C41 15.9333 40.8917 15.3667 40.675 14.8C40.4583 14.2333 40.1333 13.7333 39.7 13.3L30.7 4.29999C30.2667 3.86665 29.7667 3.54165 29.2 3.32499C28.6333 3.10832 28.0667 2.99999 27.5 2.99999C26.9444 2.99999 26.3889 3.10832 25.8333 3.32499C25.2778 3.54165 24.7833 3.86665 24.35 4.29999L23.45 5.19999L27.5 9.29999C27.9333 9.76665 28.3167 10.3083 28.65 10.925C28.9833 11.5417 29.15 12.2167 29.15 12.95C29.15 14.2167 28.6583 15.3333 27.675 16.3C26.6917 17.2667 25.5667 17.75 24.3 17.75C23.4667 17.75 22.775 17.625 22.225 17.375C21.675 17.125 21.1719 16.7693 20.7157 16.3079L17.05 12.65L8 21.7C7.83333 21.8667 7.71667 22.0421 7.65 22.2263C7.58333 22.4105 7.55 22.6079 7.55 22.8184C7.55 23.2395 7.69167 23.5917 7.975 23.875C8.25833 24.1583 8.61112 24.3 9.03335 24.3C9.24445 24.3 9.44167 24.25 9.625 24.15C9.80833 24.05 9.96667 23.9333 10.1 23.8L17 16.9L19.1 19L12.25 25.85C12.0833 26.0167 11.9667 26.2 11.9 26.4C11.8333 26.6 11.8 26.8 11.8 27C11.8 27.4 11.95 27.75 12.25 28.05C12.55 28.35 12.9 28.5 13.3 28.5C13.5 28.5 13.6917 28.4583 13.875 28.375C14.0583 28.2917 14.2167 28.1833 14.35 28.05L21.25 21.15L23.35 23.25L16.5 30.1C16.3667 30.2333 16.2583 30.4055 16.175 30.6166C16.0917 30.8278 16.05 31.0389 16.05 31.25C16.05 31.65 16.2 32 16.5 32.3C16.8 32.6 17.15 32.75 17.55 32.75C17.75 32.75 17.9333 32.7167 18.1 32.65C18.2667 32.5833 18.4333 32.4667 18.6 32.3L25.5 25.4L27.6 27.5L20.7 34.4C20.5333 34.5667 20.4167 34.75 20.35 34.95C20.2833 35.15 20.25 35.3333 20.25 35.5C20.25 35.9667 20.3833 36.3333 20.65 36.6C20.9167 36.8667 21.2833 37 21.75 37ZM21.7532 40C20.6511 40 19.6667 39.5917 18.8 38.775C17.9333 37.9583 17.4167 36.948 17.25 35.744C16.1167 35.5813 15.1667 35.1167 14.4 34.35C13.6333 33.5833 13.1667 32.6333 13 31.5C11.8667 31.3333 10.925 30.8583 10.175 30.075C9.425 29.2917 8.96667 28.35 8.8 27.25C7.56667 27.0833 6.55 26.5833 5.75 25.75C4.95 24.9167 4.55 23.9167 4.55 22.75C4.55 22.1833 4.66207 21.6158 4.8862 21.0475C5.11033 20.4792 5.4316 19.9801 5.85 19.55L17.05 8.34999L22.55 13.85C22.8167 14.1167 23.1056 14.325 23.4167 14.475C23.7278 14.625 24.0389 14.7 24.35 14.7C24.7833 14.7 25.1917 14.5083 25.575 14.125C25.9583 13.7417 26.15 13.3308 26.15 12.8923C26.15 12.6974 26.0917 12.475 25.975 12.225C25.8583 11.975 25.6667 11.7167 25.4 11.45L18.25 4.29999C17.8167 3.86665 17.3167 3.54165 16.75 3.32499C16.1833 3.10832 15.6167 2.99999 15.05 2.99999C14.4944 2.99999 13.9389 3.10832 13.3833 3.32499C12.8278 3.54165 12.3343 3.86427 11.9029 4.29284L4.3 11.9C3.83333 12.3667 3.50833 12.8583 3.325 13.375C3.14167 13.8917 3.03333 14.475 3 15.125C2.96667 15.775 3.09167 16.4083 3.375 17.025C3.65833 17.6417 4 18.2 4.4 18.7L2.25 20.85C1.58333 20.1167 1.04167 19.2333 0.625 18.2C0.208333 17.1667 0 16.1167 0 15.05C0 14.05 0.191667 13.0917 0.575 12.175C0.958333 11.2583 1.5 10.45 2.2 9.74999L9.75 2.19999C10.4833 1.46665 11.3132 0.924988 12.2396 0.574988C13.1661 0.224988 14.1161 0.0499878 15.0897 0.0499878C16.0632 0.0499878 17.0083 0.224988 17.925 0.574988C18.8417 0.924988 19.6667 1.46665 20.4 2.19999L21.3 3.09999L22.2 2.19999C22.9333 1.46665 23.7632 0.924988 24.6897 0.574988C25.6161 0.224988 26.5661 0.0499878 27.5397 0.0499878C28.5132 0.0499878 29.4583 0.224988 30.375 0.574988C31.2917 0.924988 32.1167 1.46665 32.85 2.19999L41.8 11.15C42.5333 11.8833 43.0833 12.7172 43.45 13.6516C43.8167 14.5861 44 15.5361 44 16.5016C44 17.4672 43.8167 18.4083 43.45 19.325C43.0833 20.2417 42.5333 21.0667 41.8 21.8L24.95 38.65C24.5167 39.0833 24.0245 39.4167 23.4734 39.65C22.9223 39.8833 22.3489 40 21.7532 40Z" fill="black"/>
</svg>
